<svg width="375" height="217" viewBox="0 0 375 217" fill="none" xmlns="http://www.w3.org/2000/svg">
<circle cx="53.962" cy="90.9977" r="72.5992" stroke="white" stroke-opacity="0.07"/>
<circle cx="54" cy="91" r="54.5" stroke="white" stroke-opacity="0.07"/>
<path opacity="0.5" d="M153.492 90.9984C153.492 145.432 108.936 189.567 53.9619 189.567C-1.01183 189.567 -45.5686 145.432 -45.5686 90.9984C-45.5686 36.5649 -1.01183 -7.57031 53.9619 -7.57031C108.936 -7.57031 153.492 36.5649 153.492 90.9984Z" stroke="white" stroke-opacity="0.07"/>
<circle opacity="0.5" cx="53" cy="91" r="125.5" stroke="white" stroke-opacity="0.07"/>
<g opacity="0.77">
<circle cx="331.465" cy="88.9972" r="34.8891" stroke="white" stroke-opacity="0.07"/>
<path opacity="0.5" d="M379.39 88.9983C379.39 115.206 357.938 136.459 331.464 136.459C304.991 136.459 283.538 115.206 283.538 88.9983C283.538 62.791 304.991 41.5376 331.464 41.5376C357.938 41.5376 379.39 62.791 379.39 88.9983Z" stroke="white" stroke-opacity="0.07"/>
<circle opacity="0.5" cx="330.999" cy="88.9985" r="60.4985" stroke="white" stroke-opacity="0.07"/>
</g>
</svg>
