<svg width="13" height="13" viewBox="0 0 13 13" fill="none" xmlns="http://www.w3.org/2000/svg">
<g clip-path="url(#clip0_1_2922)">
<path d="M11.6458 4.06252C11.6458 4.1871 11.4237 4.40377 11.0716 4.66377C10.004 5.40711 8.85331 6.02335 7.64288 6.50002C7.27828 6.64912 6.89269 6.74049 6.49996 6.77085C6.10723 6.74049 5.72163 6.64912 5.35704 6.50002C4.14661 6.02335 2.99591 5.40711 1.92829 4.66377C1.57621 4.40377 1.35413 4.1871 1.35413 4.06252C1.35413 3.93794 1.57621 3.72127 1.92829 3.46127C2.99591 2.71793 4.14661 2.10169 5.35704 1.62502C5.72163 1.47592 6.10723 1.38455 6.49996 1.35419C6.89269 1.38455 7.27828 1.47592 7.64288 1.62502C8.8523 2.09485 10.003 2.70381 11.0716 3.4396C11.4237 3.72127 11.6458 3.93794 11.6458 4.06252Z" stroke="#4B5563" stroke-linecap="round" stroke-linejoin="round"/>
<path d="M11.6458 9.47919C11.0716 10.0209 7.64288 11.6459 6.49996 11.6459C5.35704 11.6459 1.92829 10.0209 1.35413 9.47919" stroke="#4B5563" stroke-linecap="round" stroke-linejoin="round"/>
<path d="M11.6458 7.04169C11.0716 7.58335 7.64288 9.20835 6.49996 9.20835C5.35704 9.20835 1.92829 7.58335 1.35413 7.04169" stroke="#4B5563" stroke-linecap="round" stroke-linejoin="round"/>
</g>
<defs>
<clipPath id="clip0_1_2922">
<rect width="13" height="13" fill="white"/>
</clipPath>
</defs>
</svg>
