<svg width="151" height="69" viewBox="0 0 151 69" fill="none" xmlns="http://www.w3.org/2000/svg">
<path d="M37.6037 39.9534V29.5967H35.0103V37.3642H12.8332C13.7306 36.2816 14.2635 34.9366 14.2635 33.4805C14.2635 29.9113 11.0642 27.0076 7.13173 27.0076H3.89003V29.5967H7.13173C9.63419 29.5967 11.6701 31.339 11.6701 33.4805C11.6701 35.6219 9.63419 37.3642 7.13173 37.3642H0V39.9533H7.13173C9.21143 39.9533 11.0857 39.1408 12.3905 37.8476V39.9534H37.6037Z" fill="white"/>
<path d="M29.4992 46.4263C30.3944 46.4263 31.1201 45.7017 31.1201 44.808C31.1201 43.9143 30.3944 43.1898 29.4992 43.1898C28.6041 43.1898 27.8784 43.9143 27.8784 44.808C27.8784 45.7017 28.6041 46.4263 29.4992 46.4263Z" fill="white"/>
<path d="M24.9611 46.4263C25.8562 46.4263 26.5819 45.7017 26.5819 44.808C26.5819 43.9143 25.8562 43.1898 24.9611 43.1898C24.0659 43.1898 23.3402 43.9143 23.3402 44.808C23.3402 45.7017 24.0659 46.4263 24.9611 46.4263Z" fill="white"/>
<path d="M58.3503 27.0077C54.054 27.0077 50.5703 29.9061 50.5703 33.4806C50.5703 34.9377 51.1496 36.2824 52.1265 37.3643H45.3836V29.5968H42.7902V39.9533C42.7902 42.0948 40.7543 43.8371 38.2518 43.8371H36.3068V46.4262H38.2518C42.1843 46.4262 45.3835 43.5225 45.3836 39.9534H58.3503C62.6467 39.9534 66.1304 37.055 66.1304 33.4806C66.1304 29.9061 62.6467 27.0077 58.3503 27.0077ZM58.3503 37.3643C55.4861 37.3643 53.1636 35.6252 53.1636 33.4806C53.1636 31.3359 55.4861 29.5968 58.3503 29.5968C61.2145 29.5968 63.5371 31.3359 63.5371 33.4806C63.5371 35.6252 61.2145 37.3643 58.3503 37.3643Z" fill="white"/>
<path d="M60.1009 23.4547L59.2494 23.0301C59.215 23.0125 59.185 22.9905 59.1577 22.9641C59.1312 22.9368 59.1091 22.9068 59.0915 22.8725L58.6662 22.0224C58.5356 21.7625 58.1651 21.7625 58.0345 22.0224L57.6092 22.8725C57.5916 22.9068 57.5695 22.9368 57.543 22.9641C57.5157 22.9905 57.4857 23.0125 57.4513 23.0301L56.5999 23.4547C56.3396 23.5851 56.3396 23.9551 56.5999 24.0854L57.4513 24.51C57.4857 24.5276 57.5157 24.5497 57.543 24.5761C57.5695 24.6034 57.5916 24.6333 57.6092 24.6677L58.0345 25.5177C58.1651 25.7776 58.5356 25.7776 58.6662 25.5177L59.0915 24.6677C59.1091 24.6333 59.1312 24.6034 59.1577 24.5761C59.185 24.5497 59.215 24.5276 59.2494 24.51L60.1009 24.0854C60.3611 23.9551 60.3611 23.5851 60.1009 23.4547Z" fill="white"/>
<path d="M147.066 39.6671L132.108 47.1262C131.503 47.4357 130.976 47.8226 130.496 48.2868L116.313 34.127L130.496 19.9671C130.976 20.4313 131.503 20.8182 132.108 21.1277L147.066 28.5868C151.638 30.8771 151.638 37.3768 147.066 39.6671Z" fill="#00DDC2"/>
<path d="M116.313 34.127L102.13 48.2868C101.649 47.8226 101.122 47.4357 100.518 47.1262L85.5598 39.6671C80.9873 37.3768 80.9873 30.8771 85.5598 28.5868L100.518 21.1277C101.122 20.8182 101.649 20.4313 102.13 19.9671L116.313 34.127Z" fill="#FF3381"/>
<path d="M130.496 48.2867C130.031 48.7665 129.643 49.2927 129.333 49.8962L121.862 64.8298C119.568 69.3951 113.058 69.3951 110.764 64.8298L103.292 49.8962C102.983 49.2927 102.595 48.7665 102.13 48.2867L116.313 34.1269L130.496 48.2867Z" fill="#FFC046"/>
<path d="M130.496 19.967L116.313 34.1269L102.13 19.967C102.595 19.4873 102.983 18.9611 103.292 18.3576L110.764 3.42392C113.058 -1.14131 119.568 -1.14131 121.862 3.42392L129.333 18.3576C129.643 18.9611 130.031 19.4873 130.496 19.967Z" fill="#2F83FE"/>
</svg>
