<svg width="122" height="56" viewBox="0 0 122 56" fill="none" xmlns="http://www.w3.org/2000/svg">
<path d="M30.4837 32.3885V23.9928H28.3814V30.2896H10.4033C11.1308 29.412 11.5628 28.3216 11.5628 27.1412C11.5628 24.2479 8.96927 21.8939 5.78139 21.8939H3.15349V23.9928H5.78139C7.81004 23.9928 9.46046 25.4052 9.46046 27.1412C9.46046 28.8772 7.81004 30.2896 5.78139 30.2896H0V32.3885H5.78139C7.46732 32.3885 8.98669 31.7298 10.0444 30.6815V32.3885H30.4837Z" fill="#2D1B5E"/>
<path d="M23.9137 37.6358C24.6394 37.6358 25.2277 37.0484 25.2277 36.3239C25.2277 35.5994 24.6394 35.0121 23.9137 35.0121C23.1881 35.0121 22.5998 35.5994 22.5998 36.3239C22.5998 37.0484 23.1881 37.6358 23.9137 37.6358Z" fill="#2D1B5E"/>
<path d="M20.2349 37.6358C20.9605 37.6358 21.5488 37.0484 21.5488 36.3239C21.5488 35.5994 20.9605 35.0121 20.2349 35.0121C19.5092 35.0121 18.9209 35.5994 18.9209 36.3239C18.9209 37.0484 19.5092 37.6358 20.2349 37.6358Z" fill="#2D1B5E"/>
<path d="M47.3021 21.8939C43.8193 21.8939 40.9952 24.2435 40.9952 27.1412C40.9952 28.3225 41.4648 29.4125 42.2568 30.2896H36.7905V23.9928H34.6882V32.3884C34.6882 34.1244 33.0378 35.5368 31.0091 35.5368H29.4324V37.6357H31.0091C34.197 37.6357 36.7905 35.2818 36.7905 32.3885H47.3021C50.785 32.3885 53.6091 30.0388 53.6091 27.1412C53.6091 24.2435 50.785 21.8939 47.3021 21.8939ZM47.3021 30.2896C44.9802 30.2896 43.0975 28.8798 43.0975 27.1412C43.0975 25.4026 44.9802 23.9928 47.3021 23.9928C49.624 23.9928 51.5068 25.4026 51.5068 27.1412C51.5068 28.8798 49.624 30.2896 47.3021 30.2896Z" fill="#2D1B5E"/>
<path d="M48.7212 19.0136L48.031 18.6695C48.0031 18.6552 47.9788 18.6373 47.9566 18.6159C47.9352 18.5938 47.9173 18.5695 47.903 18.5416L47.5582 17.8525C47.4524 17.6419 47.152 17.6419 47.0461 17.8525L46.7013 18.5416C46.6871 18.5695 46.6692 18.5938 46.6477 18.6159C46.6255 18.6373 46.6012 18.6552 46.5733 18.6695L45.8831 19.0136C45.6721 19.1193 45.6721 19.4192 45.8831 19.5249L46.5733 19.8691C46.6012 19.8834 46.6255 19.9013 46.6477 19.9227C46.6692 19.9448 46.6871 19.9691 46.7013 19.997L47.0461 20.686C47.152 20.8967 47.4524 20.8967 47.5582 20.686L47.903 19.997C47.9173 19.9691 47.9352 19.9448 47.9566 19.9227C47.9788 19.9013 48.0031 19.8834 48.031 19.8691L48.7212 19.5249C48.9322 19.4192 48.9322 19.1193 48.7212 19.0136Z" fill="#2D1B5E"/>
<path d="M119.22 32.1563L107.094 38.2031C106.604 38.454 106.177 38.7677 105.787 39.144L94.2898 27.6652L105.787 16.1864C106.177 16.5627 106.604 16.8763 107.094 17.1273L119.22 23.174C122.927 25.0307 122.927 30.2997 119.22 32.1563Z" fill="#00DDC2"/>
<path d="M94.2898 27.6652L82.7923 39.144C82.4027 38.7677 81.9756 38.454 81.4855 38.2031L69.3597 32.1563C65.6529 30.2997 65.6529 25.0307 69.3597 23.174L81.4855 17.1273C81.9756 16.8763 82.4027 16.5627 82.7923 16.1864L94.2898 27.6652Z" fill="#FF3381"/>
<path d="M105.787 39.1441C105.41 39.533 105.096 39.9595 104.845 40.4488L98.7884 52.5549C96.9286 56.2557 91.6511 56.2557 89.7914 52.5549L83.7348 40.4488C83.4835 39.9595 83.1694 39.533 82.7924 39.1441L94.2899 27.6653L105.787 39.1441Z" fill="#FFC046"/>
<path d="M105.787 16.1864L94.2899 27.6653L82.7924 16.1864C83.1694 15.7975 83.4835 15.3709 83.7348 14.8817L89.7914 2.77563C91.6511 -0.92521 96.9286 -0.92521 98.7884 2.77563L104.845 14.8817C105.096 15.3709 105.41 15.7975 105.787 16.1864Z" fill="#2F83FE"/>
</svg>
