<svg width="11" height="10" viewBox="0 0 11 10" fill="none" xmlns="http://www.w3.org/2000/svg">
<path d="M10.6811 7.20773L9.29017 7.93634C9.23395 7.96657 9.18495 8.00436 9.14027 8.04971L7.82141 6.66658L9.14027 5.28345C9.18495 5.32879 9.23395 5.36658 9.29017 5.39682L10.6811 6.12542C11.1063 6.34914 11.1063 6.98402 10.6811 7.20773Z" fill="#3381FF"/>
<path d="M7.82152 6.66658L6.50267 8.04971C6.45798 8.00436 6.40898 7.96657 6.35277 7.93634L4.96184 7.20773C4.53665 6.98402 4.53665 6.34914 4.96184 6.12542L6.35277 5.39682C6.40898 5.36658 6.45798 5.32879 6.50267 5.28345L7.82152 6.66658Z" fill="#3381FF"/>
<path d="M9.1404 8.04963C9.09715 8.09649 9.06112 8.14789 9.0323 8.20684L8.33755 9.66555C8.12423 10.1115 7.51886 10.1115 7.30553 9.66555L6.61079 8.20684C6.58197 8.14789 6.54593 8.09649 6.50269 8.04963L7.82154 6.6665L9.1404 8.04963Z" fill="#3381FF"/>
<path d="M9.1404 5.28337L7.82154 6.66651L6.50269 5.28337C6.54593 5.23651 6.58197 5.18512 6.61079 5.12617L7.30553 3.66745C7.51886 3.22153 8.12423 3.22153 8.33755 3.66745L9.0323 5.12617C9.06112 5.18512 9.09715 5.23651 9.1404 5.28337Z" fill="#3381FF"/>
<path d="M6.03815 3.87473L4.64722 4.60333C4.59101 4.63356 4.54201 4.67135 4.49732 4.7167L3.17847 3.33357L4.49732 1.95044C4.54201 1.99579 4.59101 2.03358 4.64722 2.06381L6.03815 2.79241C6.46334 3.01613 6.46334 3.65101 6.03815 3.87473Z" fill="#FD3082"/>
<path d="M3.17858 3.33357L1.85972 4.7167C1.81504 4.67135 1.76604 4.63356 1.70982 4.60333L0.318898 3.87473C-0.106299 3.65101 -0.106299 3.01613 0.318898 2.79241L1.70982 2.06381C1.76604 2.03358 1.81504 1.99579 1.85972 1.95044L3.17858 3.33357Z" fill="#FD3082"/>
<path d="M4.49745 4.71662C4.45421 4.76348 4.41817 4.81488 4.38935 4.87384L3.69461 6.33254C3.48128 6.77847 2.87591 6.77847 2.66258 6.33254L1.96784 4.87384C1.93902 4.81488 1.90299 4.76348 1.85974 4.71662L3.1786 3.3335L4.49745 4.71662Z" fill="#FD3082"/>
<path d="M4.49745 1.95037L3.1786 3.3335L1.85974 1.95037C1.90299 1.90351 1.93902 1.85211 1.96784 1.79316L2.66258 0.334447C2.87591 -0.111482 3.48128 -0.111482 3.69461 0.334447L4.38935 1.79316C4.41817 1.85211 4.45421 1.90351 4.49745 1.95037Z" fill="#FD3082"/>
</svg>
