<svg width="40" height="40" viewBox="0 0 40 40" fill="none" xmlns="http://www.w3.org/2000/svg">
<rect y="-0.00135803" width="39.6489" height="40.0027" rx="12" fill="#F9FAFB" fill-opacity="0.11"/>
<path d="M28.0435 20.66C27.8831 20.4775 27.7947 20.2429 27.7947 20C27.7947 19.7571 27.8831 19.5225 28.0435 19.34L29.3235 17.9C29.4645 17.7427 29.5521 17.5447 29.5736 17.3345C29.5952 17.1243 29.5496 16.9127 29.4435 16.73L27.4435 13.27C27.3384 13.0875 27.1783 12.9429 26.9862 12.8567C26.7941 12.7705 26.5796 12.7472 26.3735 12.79L24.4935 13.17C24.2542 13.2194 24.0052 13.1796 23.7933 13.058C23.5815 12.9364 23.4214 12.7415 23.3435 12.51L22.7335 10.68C22.6664 10.4814 22.5386 10.3089 22.3681 10.1868C22.1976 10.0648 21.9931 9.99946 21.7835 10H17.7835C17.5654 9.98862 17.3496 10.0489 17.169 10.1717C16.9884 10.2945 16.853 10.473 16.7835 10.68L16.2235 12.51C16.1455 12.7415 15.9854 12.9364 15.7736 13.058C15.5617 13.1796 15.3127 13.2194 15.0735 13.17L13.1435 12.79C12.948 12.7624 12.7488 12.7932 12.5708 12.8786C12.3928 12.9641 12.2442 13.1002 12.1435 13.27L10.1435 16.73C10.0346 16.9107 9.98567 17.1211 10.0036 17.3312C10.0216 17.5414 10.1055 17.7404 10.2435 17.9L11.5135 19.34C11.6738 19.5225 11.7622 19.7571 11.7622 20C11.7622 20.2429 11.6738 20.4775 11.5135 20.66L10.2435 22.1C10.1055 22.2596 10.0216 22.4586 10.0036 22.6688C9.98567 22.8789 10.0346 23.0894 10.1435 23.27L12.1435 26.73C12.2485 26.9125 12.4086 27.0571 12.6007 27.1433C12.7928 27.2295 13.0073 27.2528 13.2135 27.21L15.0935 26.83C15.3327 26.7806 15.5817 26.8204 15.7936 26.942C16.0054 27.0636 16.1655 27.2585 16.2435 27.49L16.8535 29.32C16.923 29.527 17.0584 29.7055 17.239 29.8283C17.4196 29.9511 17.6354 30.0114 17.8535 30H21.8535C22.0631 30.0005 22.2676 29.9352 22.4381 29.8132C22.6086 29.6911 22.7364 29.5186 22.8035 29.32L23.4135 27.49C23.4915 27.2585 23.6515 27.0636 23.8633 26.942C24.0752 26.8204 24.3242 26.7806 24.5635 26.83L26.4435 27.21C26.6496 27.2528 26.8641 27.2295 27.0562 27.1433C27.2483 27.0571 27.4084 26.9125 27.5135 26.73L29.5135 23.27C29.6196 23.0873 29.6652 22.8757 29.6436 22.6655C29.6221 22.4553 29.5345 22.2573 29.3935 22.1L28.0435 20.66ZM26.5535 22L27.3535 22.9L26.0735 25.12L24.8935 24.88C24.1732 24.7328 23.424 24.8551 22.788 25.2238C22.1521 25.5925 21.6736 26.1818 21.4435 26.88L21.0635 28H18.5035L18.1435 26.86C17.9133 26.1618 17.4348 25.5725 16.7989 25.2038C16.1629 24.8351 15.4137 24.7128 14.6935 24.86L13.5135 25.1L12.2135 22.89L13.0135 21.99C13.5054 21.44 13.7774 20.7279 13.7774 19.99C13.7774 19.2521 13.5054 18.54 13.0135 17.99L12.2135 17.09L13.4935 14.89L14.6735 15.13C15.3937 15.2772 16.1429 15.1549 16.7789 14.7862C17.4148 14.4175 17.8933 13.8282 18.1235 13.13L18.5035 12H21.0635L21.4435 13.14C21.6736 13.8382 22.1521 14.4275 22.788 14.7962C23.424 15.1649 24.1732 15.2872 24.8935 15.14L26.0735 14.9L27.3535 17.12L26.5535 18.02C26.067 18.5688 25.7984 19.2767 25.7984 20.01C25.7984 20.7433 26.067 21.4512 26.5535 22ZM19.7835 16C18.9923 16 18.219 16.2346 17.5612 16.6741C16.9034 17.1136 16.3907 17.7384 16.0879 18.4693C15.7852 19.2002 15.706 20.0044 15.8603 20.7804C16.0147 21.5563 16.3956 22.269 16.955 22.8284C17.5144 23.3878 18.2272 23.7688 19.0031 23.9231C19.779 24.0775 20.5833 23.9983 21.3142 23.6955C22.0451 23.3928 22.6698 22.8801 23.1093 22.2223C23.5489 21.5645 23.7835 20.7911 23.7835 20C23.7835 18.9391 23.362 17.9217 22.6119 17.1716C21.8617 16.4214 20.8443 16 19.7835 16ZM19.7835 22C19.3879 22 19.0012 21.8827 18.6723 21.6629C18.3434 21.4432 18.0871 21.1308 17.9357 20.7654C17.7843 20.3999 17.7447 19.9978 17.8219 19.6098C17.8991 19.2219 18.0895 18.8655 18.3692 18.5858C18.6489 18.3061 19.0053 18.1156 19.3933 18.0384C19.7812 17.9613 20.1834 18.0009 20.5488 18.1522C20.9143 18.3036 21.2266 18.56 21.4464 18.8889C21.6662 19.2178 21.7835 19.6044 21.7835 20C21.7835 20.5304 21.5727 21.0391 21.1977 21.4142C20.8226 21.7893 20.3139 22 19.7835 22Z" fill="white"/>
</svg>
