<svg width="20" height="21" viewBox="0 0 20 21" fill="none" xmlns="http://www.w3.org/2000/svg">
<path d="M18.3334 7.94283C18.3334 7.43798 18.3334 7.18556 18.2336 7.06867C18.147 6.96725 18.017 6.91343 17.8841 6.92389C17.7308 6.93595 17.5523 7.11444 17.1953 7.47142L14.1667 10.5L17.1953 13.5286C17.5523 13.8856 17.7308 14.0641 17.8841 14.0761C18.017 14.0866 18.147 14.0328 18.2336 13.9314C18.3334 13.8145 18.3334 13.5621 18.3334 13.0572V7.94283Z" stroke="#374151" stroke-width="1.2" stroke-linecap="round" stroke-linejoin="round"/>
<path d="M1.66675 8.66669C1.66675 7.26656 1.66675 6.56649 1.93923 6.03171C2.17892 5.56131 2.56137 5.17885 3.03177 4.93917C3.56655 4.66669 4.26662 4.66669 5.66675 4.66669H10.1667C11.5669 4.66669 12.2669 4.66669 12.8017 4.93917C13.2721 5.17885 13.6546 5.56131 13.8943 6.03171C14.1667 6.56649 14.1667 7.26656 14.1667 8.66669V12.3334C14.1667 13.7335 14.1667 14.4336 13.8943 14.9683C13.6546 15.4387 13.2721 15.8212 12.8017 16.0609C12.2669 16.3334 11.5669 16.3334 10.1667 16.3334H5.66675C4.26662 16.3334 3.56655 16.3334 3.03177 16.0609C2.56137 15.8212 2.17892 15.4387 1.93923 14.9683C1.66675 14.4336 1.66675 13.7335 1.66675 12.3334V8.66669Z" stroke="#374151" stroke-width="1.2" stroke-linecap="round" stroke-linejoin="round"/>
</svg>
